<svg width="19" height="19" viewBox="0 0 19 19" fill="none" xmlns="http://www.w3.org/2000/svg">
<mask id="mask0_1483_521" style="mask-type:alpha" maskUnits="userSpaceOnUse" x="0" y="0" width="19" height="19">
<rect width="19" height="19" fill="#D9D9D9"/>
</mask>
<g mask="url(#mask0_1483_521)">
<path d="M9.50006 17.0208C8.5663 17.0208 7.69141 16.8442 6.87538 16.491C6.05936 16.1378 5.34788 15.6577 4.74093 15.0508C4.134 14.4438 3.65393 13.7324 3.30073 12.9163C2.94752 12.1003 2.77091 11.2254 2.77091 10.2917C2.77091 9.35791 2.94752 8.48302 3.30073 7.66699C3.65393 6.85097 4.134 6.13949 4.74093 5.53254C5.34788 4.92561 6.05936 4.44554 6.87538 4.09234C7.69141 3.73913 8.5663 3.56252 9.50006 3.56252C10.4338 3.56252 11.3087 3.73913 12.1247 4.09234C12.9408 4.44554 13.6522 4.92561 14.2592 5.53254C14.8661 6.13949 15.3462 6.85097 15.6994 7.66699C16.0526 8.48302 16.2292 9.35791 16.2292 10.2917C16.2292 11.2254 16.0526 12.1003 15.6994 12.9163C15.3462 13.7324 14.8661 14.4438 14.2592 15.0508C13.6522 15.6577 12.9408 16.1378 12.1247 16.491C11.3087 16.8442 10.4338 17.0208 9.50006 17.0208ZM11.8538 13.4796L12.688 12.6454L10.0938 10.0511V6.33333H8.90633V10.5322L11.8538 13.4796ZM4.55519 2.28673L5.38946 3.12101L2.3294 6.18108L1.49512 5.3468L4.55519 2.28673ZM14.4449 2.28673L17.505 5.3468L16.6707 6.18108L13.6106 3.12101L14.4449 2.28673ZM9.50006 15.8333C11.0387 15.8333 12.347 15.2944 13.4249 14.2165C14.5028 13.1386 15.0417 11.8303 15.0417 10.2917C15.0417 8.753 14.5028 7.44471 13.4249 6.36682C12.347 5.28894 11.0387 4.75 9.50006 4.75C7.96138 4.75 6.6531 5.28894 5.57521 6.36682C4.49733 7.44471 3.95839 8.753 3.95839 10.2917C3.95839 11.8303 4.49733 13.1386 5.57521 14.2165C6.6531 15.2944 7.96138 15.8333 9.50006 15.8333Z" fill="#444444"/>
</g>
</svg>
