<svg width="60" height="27" viewBox="0 0 60 27" fill="none" xmlns="http://www.w3.org/2000/svg">
<rect x="0.5" y="0.5" width="59" height="26" rx="8.5" stroke="#1C1B1F"/>
<path d="M14.4365 19H13.2676V10.0312H10.123V9.00586H17.5674V10.0312H14.4365V19ZM25.3672 15.2402C25.3672 15.8555 25.2874 16.4046 25.1279 16.8877C24.9684 17.3708 24.7383 17.7786 24.4375 18.1113C24.1367 18.444 23.7721 18.6992 23.3438 18.877C22.9199 19.0501 22.4391 19.1367 21.9014 19.1367C21.4001 19.1367 20.9398 19.0501 20.5205 18.877C20.1058 18.6992 19.7458 18.444 19.4404 18.1113C19.1396 17.7786 18.9049 17.3708 18.7363 16.8877C18.5723 16.4046 18.4902 15.8555 18.4902 15.2402C18.4902 14.4199 18.6292 13.7227 18.9072 13.1484C19.1852 12.5697 19.5817 12.1299 20.0967 11.8291C20.6162 11.5238 21.2337 11.3711 21.9492 11.3711C22.6328 11.3711 23.2298 11.5238 23.7402 11.8291C24.2552 12.1344 24.654 12.5765 24.9365 13.1553C25.2236 13.7295 25.3672 14.4245 25.3672 15.2402ZM19.666 15.2402C19.666 15.8418 19.7458 16.3636 19.9053 16.8057C20.0648 17.2477 20.3109 17.5895 20.6436 17.8311C20.9762 18.0726 21.4046 18.1934 21.9287 18.1934C22.4482 18.1934 22.8743 18.0726 23.207 17.8311C23.5443 17.5895 23.7926 17.2477 23.9521 16.8057C24.1117 16.3636 24.1914 15.8418 24.1914 15.2402C24.1914 14.6432 24.1117 14.1283 23.9521 13.6953C23.7926 13.2578 23.5465 12.9206 23.2139 12.6836C22.8812 12.4466 22.4505 12.3281 21.9219 12.3281C21.1426 12.3281 20.5706 12.5856 20.2061 13.1006C19.846 13.6156 19.666 14.3288 19.666 15.2402ZM29.9951 19.1367C29.0472 19.1367 28.2952 18.8132 27.7393 18.166C27.1878 17.5189 26.9121 16.5573 26.9121 15.2812C26.9121 13.9915 27.1947 13.0186 27.7598 12.3623C28.3249 11.7015 29.0768 11.3711 30.0156 11.3711C30.4121 11.3711 30.7585 11.4235 31.0547 11.5283C31.3509 11.6331 31.6061 11.7744 31.8203 11.9521C32.0345 12.1253 32.2145 12.3236 32.3604 12.5469H32.4424C32.4242 12.4056 32.4059 12.2119 32.3877 11.9658C32.3695 11.7197 32.3604 11.5192 32.3604 11.3643V8.36328H33.4951V19H32.5791L32.4082 17.9336H32.3604C32.2191 18.1569 32.0391 18.3597 31.8203 18.542C31.6061 18.7243 31.3486 18.8701 31.0479 18.9795C30.7516 19.0843 30.4007 19.1367 29.9951 19.1367ZM30.1729 18.1934C30.9749 18.1934 31.5423 17.9655 31.875 17.5098C32.2077 17.054 32.374 16.3773 32.374 15.4795V15.2744C32.374 14.3219 32.2145 13.5905 31.8955 13.0801C31.5811 12.5697 31.0068 12.3145 30.1729 12.3145C29.4756 12.3145 28.9538 12.5833 28.6074 13.1211C28.2611 13.6543 28.0879 14.3835 28.0879 15.3086C28.0879 16.2292 28.2588 16.9401 28.6006 17.4414C28.9469 17.9427 29.471 18.1934 30.1729 18.1934ZM38.7041 11.3848C39.5973 11.3848 40.2604 11.5853 40.6934 11.9863C41.1263 12.3874 41.3428 13.0277 41.3428 13.9072V19H40.5156L40.2969 17.8926H40.2422C40.0326 18.166 39.8138 18.3962 39.5859 18.583C39.3581 18.7653 39.0938 18.9043 38.793 19C38.4967 19.0911 38.1322 19.1367 37.6992 19.1367C37.2435 19.1367 36.8379 19.057 36.4824 18.8975C36.1315 18.738 35.8535 18.4964 35.6484 18.1729C35.4479 17.8493 35.3477 17.4391 35.3477 16.9424C35.3477 16.195 35.6439 15.6208 36.2363 15.2197C36.8288 14.8187 37.7311 14.5999 38.9434 14.5635L40.2354 14.5088V14.0508C40.2354 13.4036 40.0964 12.9502 39.8184 12.6904C39.5404 12.4307 39.1484 12.3008 38.6426 12.3008C38.2507 12.3008 37.877 12.3577 37.5215 12.4717C37.166 12.5856 36.8288 12.7201 36.5098 12.875L36.1611 12.0137C36.4984 11.8405 36.8857 11.6924 37.3232 11.5693C37.7607 11.4463 38.221 11.3848 38.7041 11.3848ZM40.2217 15.3086L39.0801 15.3564C38.1458 15.3929 37.4873 15.5456 37.1045 15.8145C36.7217 16.0833 36.5303 16.4639 36.5303 16.9561C36.5303 17.3844 36.6602 17.7012 36.9199 17.9062C37.1797 18.1113 37.5238 18.2139 37.9521 18.2139C38.6175 18.2139 39.1621 18.0293 39.5859 17.6602C40.0098 17.291 40.2217 16.7373 40.2217 15.999V15.3086ZM42.498 11.5078H43.7148L45.3691 15.8555C45.4648 16.1107 45.5537 16.3568 45.6357 16.5938C45.7178 16.8262 45.7907 17.0495 45.8545 17.2637C45.9183 17.4779 45.9684 17.6852 46.0049 17.8857H46.0527C46.1165 17.6579 46.2077 17.3594 46.3262 16.9902C46.4447 16.6165 46.5723 16.236 46.709 15.8486L48.2744 11.5078H49.498L46.2373 20.1006C46.0641 20.5609 45.8613 20.9619 45.6289 21.3037C45.401 21.6455 45.123 21.9076 44.7949 22.0898C44.4668 22.2767 44.0703 22.3701 43.6055 22.3701C43.3913 22.3701 43.2021 22.3564 43.0381 22.3291C42.874 22.3063 42.7327 22.279 42.6143 22.2471V21.3379C42.7145 21.3607 42.8353 21.3812 42.9766 21.3994C43.1224 21.4176 43.2728 21.4268 43.4277 21.4268C43.7103 21.4268 43.9541 21.3721 44.1592 21.2627C44.3688 21.1579 44.5488 21.0029 44.6992 20.7979C44.8496 20.5928 44.9795 20.349 45.0889 20.0664L45.499 19.0137L42.498 11.5078Z" fill="#1C1B1F"/>
</svg>
