<svg width="35" height="35" viewBox="0 0 35 35" fill="none" xmlns="http://www.w3.org/2000/svg">
<g id="error">
<mask id="mask0_1798_367" style="mask-type:alpha" maskUnits="userSpaceOnUse" x="0" y="0" width="35" height="35">
<rect id="Bounding box" width="35" height="35" fill="#D9D9D9"/>
</mask>
<g mask="url(#mask0_1798_367)">
<path id="error_2" d="M17.4999 24.399C17.8336 24.399 18.1134 24.2861 18.3391 24.0604C18.5649 23.8346 18.6777 23.5548 18.6777 23.2211C18.6777 22.8874 18.5649 22.6076 18.3391 22.3819C18.1134 22.1561 17.8336 22.0433 17.4999 22.0433C17.1661 22.0433 16.8864 22.1561 16.6606 22.3819C16.4349 22.6076 16.322 22.8874 16.322 23.2211C16.322 23.5548 16.4349 23.8346 16.6606 24.0604C16.8864 24.2861 17.1661 24.399 17.4999 24.399ZM16.4062 19.0705H18.5936V10.3205H16.4062V19.0705ZM17.5023 31.3541C15.5862 31.3541 13.7851 30.9905 12.0991 30.2633C10.413 29.5361 8.94638 28.5491 7.69919 27.3025C6.45197 26.0558 5.4646 24.5899 4.73706 22.9046C4.00952 21.2193 3.64575 19.4186 3.64575 17.5024C3.64575 15.5863 4.00936 13.7852 4.73659 12.0992C5.46381 10.4131 6.45073 8.94648 7.69737 7.69929C8.94402 6.45208 10.41 5.4647 12.0953 4.73716C13.7806 4.00962 15.5813 3.64585 17.4974 3.64585C19.4136 3.64585 21.2147 4.00946 22.9007 4.73669C24.5868 5.46391 26.0534 6.45083 27.3006 7.69747C28.5478 8.94412 29.5352 10.4101 30.2627 12.0954C30.9902 13.7807 31.354 15.5814 31.354 17.4975C31.354 19.4137 30.9904 21.2148 30.2632 22.9008C29.536 24.5869 28.549 26.0535 27.3024 27.3007C26.0557 28.5479 24.5898 29.5353 22.9045 30.2628C21.2192 30.9903 19.4185 31.3541 17.5023 31.3541ZM17.4999 29.1666C20.7568 29.1666 23.5155 28.0364 25.7759 25.776C28.0363 23.5156 29.1665 20.7569 29.1665 17.5C29.1665 14.243 28.0363 11.4844 25.7759 9.22394C23.5155 6.96352 20.7568 5.83332 17.4999 5.83332C14.2429 5.83332 11.4843 6.96352 9.22384 9.22394C6.96342 11.4844 5.83322 14.243 5.83322 17.5C5.83322 20.7569 6.96342 23.5156 9.22384 25.776C11.4843 28.0364 14.2429 29.1666 17.4999 29.1666Z" fill="white"/>
</g>
</g>
</svg>
