<svg width="70" height="70" viewBox="0 0 70 70" fill="none" xmlns="http://www.w3.org/2000/svg">
<g clip-path="url(#clip0_1875_185)">
<path d="M56 0H14C6.26801 0 0 6.26801 0 14V56C0 63.732 6.26801 70 14 70H56C63.732 70 70 63.732 70 56V14C70 6.26801 63.732 0 56 0Z" fill="#1C1B1F"/>
<path d="M22.688 29.5764C22.2859 29.8445 19.8396 30.5817 18.6667 30.9169C18.9459 31.4195 19.8061 32.5589 21.0124 33.0951C22.5205 33.7653 23.8609 33.9329 24.8662 33.9329C25.8716 34.1004 27.0445 33.4301 28.2174 33.0951C29.3902 32.76 31.736 31.587 32.0711 31.2519C32.4062 30.9169 34.9196 30.7493 35.5898 30.5817C36.26 30.4142 37.9356 30.7493 39.276 31.2519C40.6165 31.7546 42.4596 33.4301 44.1351 34.1004C45.8107 34.7706 46.3134 35.1057 47.4862 35.1057C48.4246 35.1057 48.9942 34.8823 49.1618 34.7706C49.6644 34.6031 50.8039 34.1004 51.34 33.4301L51.8427 32.76C51.9767 32.4919 51.8985 32.0897 51.8427 31.9222C51.6751 31.7546 51.5075 31.587 51.34 31.587C51.2635 31.587 50.9262 31.7153 50.3347 31.4195C49.7168 31.1105 49.832 31.0844 49.4969 30.7493C49.1618 30.4142 48.6591 29.7439 48.4916 29.5764C48.3575 29.4424 47.7655 28.1801 47.4862 27.5657C47.2629 26.9514 46.7825 25.6221 46.6484 25.22C46.4809 24.7173 46.3134 24.2146 45.9782 23.3769C45.7101 22.7066 44.9729 21.4221 44.6378 20.8635C44.4144 20.4167 43.7665 19.322 42.9622 18.5178C41.9569 17.5124 40.6165 16.6746 40.4489 16.5071C40.3148 16.373 38.9409 15.8927 38.2707 15.6693C37.7122 15.5018 36.4611 15.1666 35.9249 15.1666C35.2547 15.1666 34.752 15.1666 34.2493 15.3342C33.7467 15.5018 32.9089 15.8368 32.0712 16.1719C31.401 16.44 30.3397 17.1773 29.8929 17.5124L29.0552 18.3502C28.4966 19.1321 27.212 21.0311 26.5418 22.3715C25.704 24.0471 24.196 27.7333 23.8609 28.4035C23.5258 29.0738 23.1907 29.2413 22.688 29.5764Z" fill="white"/>
<path d="M32.6803 49.5879V53.6666H25.4229V49.5879H27.2686V39.5276H25.4685V35.5172H33.8425L39.5163 46.2952V39.5504H37.6934V35.54H44.9509V39.5504H43.1508V53.6666H36.2464L30.8574 43.652V49.5879H32.6803Z" fill="white"/>
</g>
<defs>
<clipPath id="clip0_1875_185">
<rect width="70" height="70" fill="white"/>
</clipPath>
</defs>
</svg>
