<svg width="24" height="24" viewBox="0 0 24 24" fill="none" xmlns="http://www.w3.org/2000/svg">
<mask id="mask0_1569_87" style="mask-type:alpha" maskUnits="userSpaceOnUse" x="0" y="0" width="24" height="24">
<rect width="24" height="24" fill="#D9D9D9"/>
</mask>
<g mask="url(#mask0_1569_87)">
<path d="M0.500046 17.7885V16.5693C0.500046 15.9039 0.847479 15.3574 1.54235 14.9298C2.23721 14.5023 3.14297 14.2885 4.25962 14.2885C4.44424 14.2885 4.63014 14.2942 4.81732 14.3058C5.0045 14.3173 5.19296 14.3398 5.3827 14.3731C5.18783 14.6846 5.04328 15.008 4.94905 15.3433C4.85483 15.6785 4.80772 16.0224 4.80772 16.375V17.7885H0.500046ZM6.50002 17.7885V16.4135C6.50002 15.9453 6.63144 15.5174 6.89427 15.1297C7.15709 14.742 7.53593 14.4039 8.0308 14.1154C8.52566 13.8269 9.11027 13.6106 9.78462 13.4664C10.459 13.3221 11.1961 13.25 11.9961 13.25C12.8115 13.25 13.5564 13.3221 14.2307 13.4664C14.9051 13.6106 15.4897 13.8269 15.9846 14.1154C16.4795 14.4039 16.8557 14.742 17.1134 15.1297C17.3711 15.5174 17.5 15.9453 17.5 16.4135V17.7885H6.50002ZM19.1923 17.7885V16.3779C19.1923 16.0017 19.1477 15.6473 19.0586 15.3145C18.9695 14.9818 18.8359 14.668 18.6577 14.3731C18.8538 14.3398 19.0413 14.3173 19.2202 14.3058C19.399 14.2942 19.5756 14.2885 19.75 14.2885C20.8666 14.2885 21.7708 14.4997 22.4625 14.9221C23.1541 15.3446 23.5 15.8936 23.5 16.5693V17.7885H19.1923ZM8.07692 16.2885H15.9385V16.1827C15.8359 15.7789 15.4103 15.4391 14.6615 15.1635C13.9128 14.8878 13.0256 14.75 12 14.75C10.9743 14.75 10.0872 14.8878 9.33845 15.1635C8.58973 15.4391 8.16922 15.7789 8.07692 16.1827V16.2885ZM4.25707 13.3173C3.7857 13.3173 3.38304 13.1497 3.04907 12.8146C2.7151 12.4794 2.54812 12.0765 2.54812 11.6058C2.54812 11.1289 2.7157 10.726 3.05087 10.3972C3.38604 10.0683 3.78895 9.9039 4.25962 9.9039C4.73654 9.9039 5.14102 10.0683 5.47307 10.3972C5.80512 10.726 5.97115 11.1299 5.97115 11.6087C5.97115 12.0734 5.80688 12.4744 5.47835 12.8116C5.14981 13.1487 4.74272 13.3173 4.25707 13.3173ZM19.75 13.3173C19.2833 13.3173 18.8814 13.1487 18.5442 12.8116C18.2071 12.4744 18.0385 12.0734 18.0385 11.6087C18.0385 11.1299 18.2071 10.726 18.5442 10.3972C18.8814 10.0683 19.2839 9.9039 19.7518 9.9039C20.2339 9.9039 20.6394 10.0683 20.9682 10.3972C21.2971 10.726 21.4615 11.1289 21.4615 11.6058C21.4615 12.0765 21.2975 12.4794 20.9694 12.8146C20.6414 13.1497 20.2349 13.3173 19.75 13.3173ZM12.0034 12.5C11.2832 12.5 10.6699 12.2476 10.1635 11.7428C9.65707 11.238 9.40387 10.6251 9.40387 9.9039C9.40387 9.16833 9.65627 8.55176 10.1611 8.05417C10.6659 7.55659 11.2788 7.3078 12 7.3078C12.7356 7.3078 13.3521 7.55627 13.8497 8.0532C14.3473 8.55013 14.5961 9.16591 14.5961 9.90052C14.5961 10.6207 14.3477 11.234 13.8507 11.7404C13.3538 12.2468 12.738 12.5 12.0034 12.5ZM12.0048 11.0001C12.3106 11.0001 12.5689 10.893 12.7798 10.6789C12.9907 10.4648 13.0961 10.2049 13.0961 9.8991C13.0961 9.59333 12.9911 9.335 12.781 9.1241C12.5709 8.9132 12.3106 8.80775 12 8.80775C11.6974 8.80775 11.4391 8.9128 11.225 9.1229C11.0109 9.333 10.9038 9.59333 10.9038 9.9039C10.9038 10.2065 11.0109 10.4648 11.225 10.6789C11.4391 10.893 11.699 11.0001 12.0048 11.0001Z" fill="white"/>
</g>
</svg>
