<svg width="120" height="120" viewBox="0 0 120 120" fill="none" xmlns="http://www.w3.org/2000/svg">
<g clip-path="url(#clip0_2327_188)">
<mask id="mask0_2327_188" style="mask-type:luminance" maskUnits="userSpaceOnUse" x="0" y="0" width="120" height="120">
<path d="M120 0H0V120H120V0Z" fill="white"/>
</mask>
<g mask="url(#mask0_2327_188)">
<path d="M37.9105 37.3577C37.9105 37.3577 35.7647 34.8962 34.8811 35.7798C33.9975 36.6634 33.3032 44.4266 37.9105 43.4798C42.5179 42.5332 37.9105 37.3577 37.9105 37.3577Z" fill="#D48A88"/>
<path d="M62.6163 37.3577C62.6163 37.3577 64.7621 34.8962 65.6457 35.7798C66.5293 36.6634 67.2236 44.4266 62.6163 43.4798C58.0089 42.5332 62.6163 37.3577 62.6163 37.3577Z" fill="#D48A88"/>
<path d="M37.7479 39.8319C37.7479 39.8319 37.1372 37.2101 35.3887 37.6617" stroke="black" stroke-miterlimit="10" stroke-linecap="round"/>
<path d="M62.5013 39.5741C62.5013 39.5741 63.112 36.9523 64.8605 37.4039" stroke="black" stroke-miterlimit="10" stroke-linecap="round"/>
<path d="M76.6013 77.6874C76.6013 75.4736 75.4477 73.5298 73.7091 72.4233C73.4184 72.2382 73.1388 72.0358 72.8675 71.8236C52.1293 55.5882 30.7279 72.4254 30.7247 72.428C28.9895 73.5352 27.8376 75.4762 27.8376 77.6874C27.8376 81.1317 30.6297 83.9237 34.074 83.9237C34.38 83.9237 34.6805 83.9008 34.9747 83.8581C38.1504 97.8839 39.2379 118.162 39.2379 118.162H71.4375C72.8068 100.932 76.2935 87.8158 76.3072 81.0196C76.3089 80.1665 76.386 79.318 76.5223 78.4757C76.5681 78.1925 76.6013 77.9101 76.6013 77.6874Z" fill="black"/>
<path d="M40.3104 77.6876C40.3104 74.2433 37.5183 71.4512 34.074 71.4512C30.6297 71.4512 27.8376 74.2433 27.8376 77.6876C27.8376 77.8073 27.8417 77.9261 27.8484 78.0442L28.9101 112.998C28.9101 115.85 31.222 118.162 34.074 118.162C36.9259 118.162 39.2379 115.85 39.2379 112.998L40.2996 78.0442C40.3063 77.9261 40.3104 77.8073 40.3104 77.6876Z" fill="black"/>
<path d="M60.6333 68.3785C57.0412 74.0227 50.4941 73.6449 46.6113 71.6555L46.6069 71.6533C44.1861 70.4127 42.8047 68.5484 43.8217 67.1268C46.2024 63.8007 45.8424 52.821 45.8424 52.821L56.0241 52.231C55.8565 54.3075 56.2187 56.4154 56.8267 58.3712C57.8639 61.7242 59.6117 64.6165 60.5953 66.0896C61.0559 66.7804 61.0804 67.6789 60.6333 68.3785Z" fill="#F4B0AE"/>
<path d="M56.8267 58.3712C55.7851 59.8042 54.5233 61.1626 53.5005 61.7443C47.4407 65.1908 46.6115 71.6555 46.6115 71.6555L46.6069 71.6534C44.1861 70.4127 42.8047 68.5486 43.8217 67.1268C46.2024 63.8007 45.8425 52.8211 45.8425 52.8211L56.0241 52.231C55.8565 54.3075 56.2187 56.4154 56.8267 58.3712Z" fill="#D48A88"/>
<path d="M63.4294 25.5547V44.608C63.4294 46.628 62.7255 48.584 61.4387 50.1414L55.7321 57.0494C54.9067 58.048 53.6787 58.6267 52.3827 58.6267H49.064C47.7507 58.6267 46.5027 58.0494 45.652 57.0494L39.2547 49.5187C38.0613 48.1147 37.4053 46.332 37.4053 44.488V27.112L63.4294 25.5547Z" fill="#F4B0AE"/>
<path d="M63.4294 25.5547V34.3294C61.2428 33.0094 60.0387 33.4894 57.0827 34.228C53.716 35.0694 53.6321 30.7774 52.9587 30.02C52.2867 29.2627 49.8453 28.8414 48.3307 31.5347C46.816 34.228 44.8813 33.3014 44.0387 33.0494C43.1973 32.7974 40.9253 30.104 38.4853 32.6294C38.1507 32.9747 37.7867 33.2427 37.4053 33.44V27.112L63.4294 25.5547Z" fill="#D48A88"/>
<path d="M48.2159 39.0324C48.2159 39.4738 47.8579 39.8318 47.4164 39.8318C46.9749 39.8318 46.6169 39.4738 46.6169 39.0324C46.6169 38.5908 46.9749 38.2329 47.4164 38.2329C47.8579 38.2329 48.2159 38.5908 48.2159 39.0324Z" fill="black"/>
<path d="M55.6739 39.0324C55.6739 39.4738 55.3159 39.8318 54.8744 39.8318C54.4329 39.8318 54.0749 39.4738 54.0749 39.0324C54.0749 38.5908 54.4329 38.2329 54.8744 38.2329C55.3159 38.2329 55.6739 38.5908 55.6739 39.0324Z" fill="black"/>
<path d="M51.5432 41.3101C51.5432 41.3101 53.626 42.5035 51.5432 43.9551" stroke="black" stroke-miterlimit="10" stroke-linecap="round"/>
<path d="M49.11 49.055C49.11 49.055 50.9684 50.9577 53.1809 48.9443" stroke="black" stroke-miterlimit="10" stroke-linecap="round"/>
<path d="M48.7372 35.4912L45.1131 36.2994C44.9656 36.3322 44.8195 36.2393 44.7867 36.0918L44.706 35.7306C44.6731 35.5832 44.7659 35.4372 44.9133 35.4042L48.5373 34.596C48.6848 34.5632 48.8311 34.6558 48.864 34.8033L48.9447 35.1648C48.9776 35.3122 48.8847 35.4582 48.7372 35.4912Z" fill="black"/>
<path d="M53.6075 35.4912L57.2315 36.2994C57.3789 36.3322 57.5251 36.2393 57.5579 36.0918L57.6385 35.7306C57.6715 35.5832 57.5787 35.4372 57.4312 35.4042L53.8072 34.596C53.6597 34.5632 53.5135 34.6558 53.4805 34.8033L53.3999 35.1648C53.3669 35.3122 53.46 35.4582 53.6075 35.4912Z" fill="black"/>
<path d="M46.6171 42.2195C46.6171 43.178 45.8399 43.9551 44.8813 43.9551C43.9227 43.9551 43.1456 43.178 43.1456 42.2195C43.1456 41.261 43.9227 40.4839 44.8813 40.4839C45.8399 40.4839 46.6171 41.261 46.6171 42.2195Z" fill="#DA918F"/>
<path d="M36.8376 20.6746C36.8573 21.0505 37.7632 23.5359 35.9119 23.8725C34.0605 24.2091 31.1993 25.7239 31.6201 29.0058C32.0409 32.2877 36.0803 33.8865 38.5207 31.3619C40.9611 28.8374 43.2331 31.5303 44.0747 31.7829C44.9161 32.0353 46.8516 32.9607 48.3664 30.2679C49.8812 27.575 52.3215 27.9959 52.9948 28.7533C53.668 29.5107 53.7521 33.8025 57.1182 32.9609C60.4843 32.1194 61.5783 31.6143 64.4394 33.7182C64.4394 33.7182 70.1618 33.1293 68.8995 27.8277C68.8995 27.8277 71.5924 26.4813 70.4143 24.7982C69.2362 23.1151 66.2908 22.9467 65.87 21.7686C65.4492 20.5905 67.3847 18.9917 67.0482 17.7294C66.7115 16.4671 63.9346 12.4277 57.539 14.4474C57.539 14.4474 55.6876 15.4574 53.8363 14.6158C51.9849 13.7743 49.1237 12.6802 47.1883 15.2047C45.2528 17.7293 44.7479 14.8682 42.2233 14.8682C39.6987 14.8682 36.5851 15.8779 36.8376 20.6746Z" fill="#282828"/>
<path d="M59.7756 42.0911C59.7756 43.0496 58.9984 43.8267 58.0398 43.8267C57.0812 43.8267 56.3041 43.0496 56.3041 42.0911C56.3041 41.1325 57.0812 40.3555 58.0398 40.3555C58.9984 40.3555 59.7756 41.1325 59.7756 42.0911Z" fill="#DA918F"/>
<path d="M87.3407 109.088L76.581 76.5708C75.9565 73.2115 72.7406 70.9753 69.3681 71.5699C65.9762 72.168 63.7115 75.4027 64.3096 78.7946C64.4456 79.5661 64.7193 80.2783 65.0988 80.9128L77.639 112.3C78.1342 115.108 80.8126 116.984 83.6211 116.489C86.4296 115.993 88.3051 113.315 87.8098 110.506C87.7206 110 87.5596 109.525 87.3407 109.088Z" fill="black"/>
<path d="M87.3441 68.7593L87.3463 68.7585L87.3788 74.1181L87.5711 106.587C87.5788 107.952 87.6324 109.319 87.8233 110.672C88.1782 113.172 86.6499 115.656 84.0866 116.368C81.5712 117.069 78.877 115.732 77.9134 113.305C77.882 113.228 77.8536 113.153 77.8273 113.077C77.5398 112.244 77.4792 111.39 77.6103 110.579L79.4242 74.5173L79.7219 68.5944C79.7237 68.5583 79.7254 68.5224 79.7272 68.4862L79.729 68.4643C79.8593 66.9175 80.9273 65.5247 82.5505 65.0893C84.1914 64.6502 85.9602 65.3826 86.8209 66.8472C87.1838 67.4666 87.3408 68.1196 87.3441 68.7593Z" fill="black"/>
<path d="M87.3441 68.7589L87.3463 68.7581L87.3788 74.1176C85.5349 76.0434 81.8475 75.3022 79.4242 74.5169L79.7219 68.5941C79.7237 68.5579 79.7254 68.5219 79.7271 68.4858L79.7291 68.4639C79.8593 66.9172 80.9273 65.5244 82.5505 65.089C84.1914 64.6498 85.9602 65.3822 86.8209 66.8468C87.1838 67.4663 87.3408 68.1192 87.3441 68.7589Z" fill="#F4B0AE"/>
<path d="M89.1061 57.983C89.1393 57.5902 88.8276 57.2477 88.4233 57.2541C88.0717 57.2597 87.7924 57.5579 87.7628 57.9084L87.4784 61.2797C87.4571 61.5316 87.1522 61.6426 86.9736 61.4637L86.9679 61.4578C86.9059 61.396 86.8729 61.3112 86.8801 61.2239L87.4067 54.9843C87.4492 54.4809 87.0756 54.0385 86.5723 53.996C86.069 53.9536 85.6266 54.3271 85.5842 54.8304L85.1618 59.8354C85.1426 60.0607 84.9236 60.2083 84.7055 60.1483C84.703 60.1476 84.7008 60.1469 84.6983 60.1464C84.5337 60.1013 84.4264 59.9431 84.4408 59.7731L84.9657 53.5543C85.0069 53.0647 84.6434 52.6344 84.1539 52.5931C83.6643 52.5517 83.2338 52.9152 83.1926 53.4047L82.6629 59.682C82.6463 59.8779 82.4985 60.0316 82.3058 60.0712C82.2879 60.075 82.2702 60.0788 82.2525 60.0827C81.9645 60.1451 81.6969 59.9211 81.7217 59.6275L82.1302 54.7853C82.1723 54.2874 81.8027 53.8495 81.3046 53.8074C80.8066 53.7655 80.3687 54.1352 80.3267 54.6331L79.7904 60.9863C79.7673 61.2608 79.6571 61.5207 79.4758 61.7282C79.2984 61.9313 78.9708 61.8853 78.856 61.6412L77.7105 59.2041C77.4805 58.7151 76.9083 58.4487 76.4078 58.6528C75.874 58.8705 75.6378 59.4874 75.8798 60.0023L77.3475 63.1242C77.7898 64.0651 78.1115 65.0578 78.3085 66.0786C78.734 68.2843 80.5785 70.0299 82.9293 70.2225C85.7739 70.4552 88.2399 68.2491 88.4799 65.4052L88.5058 65.0979L89.1061 57.983Z" fill="#F4B0AE"/>
</g>
</g>
<defs>
<clipPath id="clip0_2327_188">
<rect width="120" height="120" fill="white"/>
</clipPath>
</defs>
</svg>
