<svg width="24" height="24" viewBox="0 0 24 24" fill="none" xmlns="http://www.w3.org/2000/svg">
<mask id="mask0_1569_81" style="mask-type:alpha" maskUnits="userSpaceOnUse" x="0" y="0" width="24" height="24">
<rect width="24" height="24" fill="#D9D9D9"/>
</mask>
<g mask="url(#mask0_1569_81)">
<path d="M12.0017 21.5C10.6877 21.5 9.45271 21.2506 8.29658 20.752C7.14043 20.2533 6.13475 19.5766 5.27953 18.7217C4.4243 17.8669 3.74724 16.8616 3.24836 15.706C2.74947 14.5504 2.50003 13.3156 2.50003 12.0017C2.50003 10.6877 2.74936 9.45271 3.24803 8.29658C3.7467 7.14042 4.42345 6.13474 5.27828 5.27953C6.13313 4.42429 7.13837 3.74723 8.29401 3.24835C9.44962 2.74947 10.6844 2.50002 11.9983 2.50002C13.3123 2.50002 14.5473 2.74936 15.7034 3.24803C16.8596 3.74669 17.8653 4.42344 18.7205 5.27828C19.5757 6.13313 20.2528 7.13837 20.7517 8.294C21.2505 9.44962 21.5 10.6844 21.5 11.9983C21.5 13.3123 21.2506 14.5473 20.752 15.7034C20.2533 16.8596 19.5766 17.8653 18.7217 18.7205C17.8669 19.5757 16.8616 20.2528 15.706 20.7517C14.5504 21.2505 13.3156 21.5 12.0017 21.5ZM12 20C14.2333 20 16.125 19.225 17.675 17.675C19.225 16.125 20 14.2333 20 12C20 9.76667 19.225 7.875 17.675 6.325C16.125 4.775 14.2333 4 12 4C9.76667 4 7.87501 4.775 6.32501 6.325C4.77501 7.875 4.00001 9.76667 4.00001 12C4.00001 14.2333 4.77501 16.125 6.32501 17.675C7.87501 19.225 9.76667 20 12 20ZM12.0023 17.5C10.4751 17.5 9.17631 16.9655 8.10581 15.8965C7.03529 14.8275 6.50003 13.5294 6.50003 12.0023C6.50003 10.4751 7.03453 9.1763 8.10353 8.1058C9.17253 7.03528 10.4706 6.50003 11.9977 6.50003C13.5249 6.50003 14.8237 7.03453 15.8942 8.10353C16.9647 9.17253 17.5 10.4706 17.5 11.9977C17.5 13.5249 16.9655 14.8237 15.8965 15.8942C14.8275 16.9647 13.5294 17.5 12.0023 17.5ZM12 16C13.1 16 14.0417 15.6083 14.825 14.825C15.6083 14.0417 16 13.1 16 12C16 10.9 15.6083 9.95833 14.825 9.175C14.0417 8.39167 13.1 8 12 8C10.9 8 9.95834 8.39167 9.17501 9.175C8.39167 9.95833 8.00001 10.9 8.00001 12C8.00001 13.1 8.39167 14.0417 9.17501 14.825C9.95834 15.6083 10.9 16 12 16ZM12 13.5C11.591 13.5 11.2388 13.3522 10.9433 13.0567C10.6478 12.7612 10.5 12.409 10.5 12C10.5 11.591 10.6478 11.2388 10.9433 10.9433C11.2388 10.6478 11.591 10.5 12 10.5C12.409 10.5 12.7612 10.6478 13.0567 10.9433C13.3522 11.2388 13.5 11.591 13.5 12C13.5 12.409 13.3522 12.7612 13.0567 13.0567C12.7612 13.3522 12.409 13.5 12 13.5Z" fill="#1C1B1F"/>
</g>
</svg>
